<svg xmlns="http://www.w3.org/2000/svg" xmlns:xlink="http://www.w3.org/1999/xlink" contentStyleType="text/css" height="776px" preserveAspectRatio="none" style="width:798px;height:776px;background:#FFFFFF;" version="1.1" viewBox="0 0 798 776" width="798px" zoomAndPan="magnify"><defs/><g><!--cluster e8a48653851e28c69d0506508fb27fc5--><g id="cluster_e8a48653851e28c69d0506508fb27fc5"><polygon fill="none" points="16,132.59,26,122.59,262,122.59,262,650.37,252,660.37,16,660.37,16,132.59" style="stroke:#181818;stroke-width:1.0;"/><line style="stroke:#181818;stroke-width:1.0;" x1="252" x2="262" y1="132.59" y2="122.59"/><line style="stroke:#181818;stroke-width:1.0;" x1="16" x2="252" y1="132.59" y2="132.59"/><line style="stroke:#181818;stroke-width:1.0;" x1="252" x2="252" y1="132.59" y2="660.37"/><text fill="#000000" font-family="sans-serif" font-size="14" font-weight="bold" lengthAdjust="spacing" textLength="71" x="99.5" y="148.5851">Postgres</text></g><!--cluster 2b9afb89a6acc1575b159bfca38d10ad--><g id="cluster_2b9afb89a6acc1575b159bfca38d10ad"><polygon fill="none" points="302,132.59,312,122.59,657,122.59,657,650.37,647,660.37,302,660.37,302,132.59" style="stroke:#181818;stroke-width:1.0;"/><line style="stroke:#181818;stroke-width:1.0;" x1="647" x2="657" y1="132.59" y2="122.59"/><line style="stroke:#181818;stroke-width:1.0;" x1="302" x2="647" y1="132.59" y2="132.59"/><line style="stroke:#181818;stroke-width:1.0;" x1="647" x2="647" y1="132.59" y2="660.37"/><text fill="#000000" font-family="sans-serif" font-size="14" font-weight="bold" lengthAdjust="spacing" textLength="54" x="448.5" y="148.5851">Django</text></g><!--entity a982c93b5eeea96f8b18192042aab99b--><g id="elem_a982c93b5eeea96f8b18192042aab99b"><rect fill="#F1F1F1" height="111.4844" rx="2.5" ry="2.5" style="stroke:#181818;stroke-width:0.5;" width="139" x="65.5" y="170.59"/><rect fill="#F1F1F1" height="10" style="stroke:#181818;stroke-width:0.5;" width="15" x="184.5" y="175.59"/><rect fill="#F1F1F1" height="2" style="stroke:#181818;stroke-width:0.5;" width="4" x="182.5" y="177.59"/><rect fill="#F1F1F1" height="2" style="stroke:#181818;stroke-width:0.5;" width="4" x="182.5" y="181.59"/><text fill="#000000" font-family="sans-serif" font-size="14" font-weight="bold" lengthAdjust="spacing" textLength="54" x="80.5" y="203.5851">sati-db</text><text fill="#000000" font-family="sans-serif" font-size="14" lengthAdjust="spacing" textLength="4" x="80.5" y="219.882">&#160;</text><text fill="#000000" font-family="sans-serif" font-size="14" lengthAdjust="spacing" textLength="98" x="80.5" y="236.1789">image: sati-db</text><text fill="#000000" font-family="sans-serif" font-size="14" lengthAdjust="spacing" textLength="99" x="80.5" y="252.4757">restart: always</text><text fill="#000000" font-family="sans-serif" font-size="14" lengthAdjust="spacing" textLength="4" x="80.5" y="268.7726">&#160;</text></g><!--entity be37e40b068362ad529067845ac94bd0--><g id="elem_be37e40b068362ad529067845ac94bd0"><rect fill="#F1F1F1" height="39.2969" rx="2.5" ry="2.5" style="stroke:#181818;stroke-width:0.5;" width="189" x="40.5" y="597.08"/><polygon fill="#F1F1F1" points="212.5,602.08,212.5,616.08,224.5,616.08,224.5,608.08,218.5,602.08,212.5,602.08" style="stroke:#181818;stroke-width:0.5;"/><line style="stroke:#181818;stroke-width:0.5;" x1="218.5" x2="218.5" y1="602.08" y2="608.08"/><line style="stroke:#181818;stroke-width:0.5;" x1="224.5" x2="218.5" y1="608.08" y2="608.08"/><text fill="#000000" font-family="sans-serif" font-size="14" lengthAdjust="spacing" textLength="159" x="50.5" y="623.0751">/var/lib/postgresql/data</text></g><!--entity b882f9f76709edb64e64cfbea4191dec--><g id="elem_b882f9f76709edb64e64cfbea4191dec"><rect fill="#F1F1F1" height="111.4844" rx="2.5" ry="2.5" style="stroke:#181818;stroke-width:0.5;" width="146" x="462" y="170.59"/><rect fill="#F1F1F1" height="10" style="stroke:#181818;stroke-width:0.5;" width="15" x="588" y="175.59"/><rect fill="#F1F1F1" height="2" style="stroke:#181818;stroke-width:0.5;" width="4" x="586" y="177.59"/><rect fill="#F1F1F1" height="2" style="stroke:#181818;stroke-width:0.5;" width="4" x="586" y="181.59"/><text fill="#000000" font-family="sans-serif" font-size="14" font-weight="bold" lengthAdjust="spacing" textLength="63" x="477" y="203.5851">sati-app</text><text fill="#000000" font-family="sans-serif" font-size="14" lengthAdjust="spacing" textLength="4" x="477" y="219.882">&#160;</text><text fill="#000000" font-family="sans-serif" font-size="14" lengthAdjust="spacing" textLength="106" x="477" y="236.1789">image: sati-app</text><text fill="#000000" font-family="sans-serif" font-size="14" lengthAdjust="spacing" textLength="99" x="477" y="252.4757">restart: always</text><text fill="#000000" font-family="sans-serif" font-size="14" lengthAdjust="spacing" textLength="4" x="477" y="268.7726">&#160;</text></g><!--entity 7c494a3e4fabc976b0a9e2ffaa3063ae--><g id="elem_7c494a3e4fabc976b0a9e2ffaa3063ae"><ellipse cx="598" cy="372.08" fill="#F1F1F1" rx="8" ry="8" style="stroke:#181818;stroke-width:0.5;"/><text fill="#000000" font-family="sans-serif" font-size="14" lengthAdjust="spacing" textLength="36" x="580" y="402.0751">8000</text></g><!--entity 28b6cd61471341661c9a3293723ca8b8--><g id="elem_28b6cd61471341661c9a3293723ca8b8"><rect fill="#F1F1F1" height="39.2969" rx="2.5" ry="2.5" style="stroke:#181818;stroke-width:0.5;" width="129" x="326.5" y="597.08"/><polygon fill="#F1F1F1" points="438.5,602.08,438.5,616.08,450.5,616.08,450.5,608.08,444.5,602.08,438.5,602.08" style="stroke:#181818;stroke-width:0.5;"/><line style="stroke:#181818;stroke-width:0.5;" x1="444.5" x2="444.5" y1="602.08" y2="608.08"/><line style="stroke:#181818;stroke-width:0.5;" x1="450.5" x2="444.5" y1="608.08" y2="608.08"/><text fill="#000000" font-family="sans-serif" font-size="14" lengthAdjust="spacing" textLength="99" x="336.5" y="623.0751">/opt/sati/static</text></g><!--entity aa4221d95a0f5d6d2dda170dfab198a9--><g id="elem_aa4221d95a0f5d6d2dda170dfab198a9"><rect fill="#F1F1F1" height="39.2969" rx="2.5" ry="2.5" style="stroke:#181818;stroke-width:0.5;" width="134" x="491" y="597.08"/><polygon fill="#F1F1F1" points="608,602.08,608,616.08,620,616.08,620,608.08,614,602.08,608,602.08" style="stroke:#181818;stroke-width:0.5;"/><line style="stroke:#181818;stroke-width:0.5;" x1="614" x2="614" y1="602.08" y2="608.08"/><line style="stroke:#181818;stroke-width:0.5;" x1="620" x2="614" y1="608.08" y2="608.08"/><text fill="#000000" font-family="sans-serif" font-size="14" lengthAdjust="spacing" textLength="104" x="501" y="623.0751">/opt/sati/media</text></g><!--entity dd94b72ff4f26c4f320c68bb03cd4c39--><g id="elem_dd94b72ff4f26c4f320c68bb03cd4c39"><polygon fill="#F1F1F1" points="394,16,404,6,508,6,508,58.5938,498,68.5938,394,68.5938,394,16" style="stroke:#181818;stroke-width:0.5;"/><line style="stroke:#181818;stroke-width:0.5;" x1="498" x2="508" y1="16" y2="6"/><line style="stroke:#181818;stroke-width:0.5;" x1="394" x2="498" y1="16" y2="16"/><line style="stroke:#181818;stroke-width:0.5;" x1="498" x2="498" y1="16" y2="68.5938"/><text fill="#000000" font-family="sans-serif" font-size="14" font-weight="bold" lengthAdjust="spacing" textLength="28" x="409" y="38.9951">sati</text><text fill="#000000" font-family="sans-serif" font-size="14" lengthAdjust="spacing" textLength="74" x="409" y="55.292">&#171;network&#187;</text></g><!--entity b23554fa851fd75b5f3c70591e2b9d2e--><g id="elem_b23554fa851fd75b5f3c70591e2b9d2e"><rect fill="#F1F1F1" height="39.2969" rx="2.5" ry="2.5" style="stroke:#181818;stroke-width:0.5;" width="78" x="96" y="731.37"/><polygon fill="#F1F1F1" points="157,736.37,157,750.37,169,750.37,169,742.37,163,736.37,157,736.37" style="stroke:#181818;stroke-width:0.5;"/><line style="stroke:#181818;stroke-width:0.5;" x1="163" x2="163" y1="736.37" y2="742.37"/><line style="stroke:#181818;stroke-width:0.5;" x1="169" x2="163" y1="742.37" y2="742.37"/><text fill="#000000" font-family="sans-serif" font-size="14" lengthAdjust="spacing" textLength="48" x="106" y="757.3651">pgdata</text></g><!--entity c0094e709fbe68c3666035bc1bb1bbf6--><g id="elem_c0094e709fbe68c3666035bc1bb1bbf6"><rect fill="#F1F1F1" height="39.2969" rx="2.5" ry="2.5" style="stroke:#181818;stroke-width:0.5;" width="76" x="353" y="731.37"/><polygon fill="#F1F1F1" points="412,736.37,412,750.37,424,750.37,424,742.37,418,736.37,412,736.37" style="stroke:#181818;stroke-width:0.5;"/><line style="stroke:#181818;stroke-width:0.5;" x1="418" x2="418" y1="736.37" y2="742.37"/><line style="stroke:#181818;stroke-width:0.5;" x1="424" x2="418" y1="742.37" y2="742.37"/><text fill="#000000" font-family="sans-serif" font-size="14" lengthAdjust="spacing" textLength="46" x="363" y="757.3651">./static</text></g><!--entity ff02fee0f7d12d656c8629c635b1be95--><g id="elem_ff02fee0f7d12d656c8629c635b1be95"><rect fill="#F1F1F1" height="39.2969" rx="2.5" ry="2.5" style="stroke:#181818;stroke-width:0.5;" width="81" x="517.5" y="731.37"/><polygon fill="#F1F1F1" points="581.5,736.37,581.5,750.37,593.5,750.37,593.5,742.37,587.5,736.37,581.5,736.37" style="stroke:#181818;stroke-width:0.5;"/><line style="stroke:#181818;stroke-width:0.5;" x1="587.5" x2="587.5" y1="736.37" y2="742.37"/><line style="stroke:#181818;stroke-width:0.5;" x1="593.5" x2="587.5" y1="742.37" y2="742.37"/><text fill="#000000" font-family="sans-serif" font-size="14" lengthAdjust="spacing" textLength="51" x="527.5" y="757.3651">./media</text></g><!--entity b155c2a6d5e1ad995799e121fec7f2ef--><g id="elem_b155c2a6d5e1ad995799e121fec7f2ef"><ellipse cx="740" cy="507.08" fill="#F1F1F1" rx="8" ry="8" style="stroke:#181818;stroke-width:0.5;"/><text fill="#000000" font-family="sans-serif" font-size="14" lengthAdjust="spacing" textLength="102" x="689" y="537.0751">127.0.0.18000</text></g><!--link be37e40b068362ad529067845ac94bd0 to b23554fa851fd75b5f3c70591e2b9d2e--><g id="link_be37e40b068362ad529067845ac94bd0_b23554fa851fd75b5f3c70591e2b9d2e"><path codeLine="29" d="M135,636.68 C135,661.83 135,705.97 135,731.1 " fill="none" id="be37e40b068362ad529067845ac94bd0-b23554fa851fd75b5f3c70591e2b9d2e" style="stroke:#181818;stroke-width:1.0;"/><text fill="#000000" font-family="sans-serif" font-size="13" lengthAdjust="spacing" textLength="14" x="136" y="697.4369">rw</text></g><!--link a982c93b5eeea96f8b18192042aab99b to be37e40b068362ad529067845ac94bd0--><g id="link_a982c93b5eeea96f8b18192042aab99b_be37e40b068362ad529067845ac94bd0"><path codeLine="30" d="M135,282.57 C135,370.95 135,533.96 135,590.65 " fill="none" id="a982c93b5eeea96f8b18192042aab99b-to-be37e40b068362ad529067845ac94bd0" style="stroke:#181818;stroke-width:1.0;stroke-dasharray:7.0,7.0;"/><polygon fill="#181818" points="135,596.65,139,587.65,135,591.65,131,587.65,135,596.65" style="stroke:#181818;stroke-width:1.0;"/><text fill="#000000" font-family="sans-serif" font-size="13" lengthAdjust="spacing" textLength="23" x="136" y="444.1469">use</text></g><!--reverse link dd94b72ff4f26c4f320c68bb03cd4c39 to e8a48653851e28c69d0506508fb27fc5--><g id="link_dd94b72ff4f26c4f320c68bb03cd4c39_e8a48653851e28c69d0506508fb27fc5"><path codeLine="31" d="M388.1004,58.0408 C360.0604,68.9808 333.06,83.3 310,106.59 C289.8,127.005 275.9175,156.09 267.0275,180.365 C265.9163,183.3994 264.883,186.3586 263.9252,189.2163 C263.4463,190.6452 262.9862,192.0487 262.5447,193.4235 C262.4343,193.7672 262.3251,194.1092 262.217,194.4492 C262.163,194.6193 262.1092,194.7888 262.0558,194.9579 " fill="none" id="dd94b72ff4f26c4f320c68bb03cd4c39-backto-e8a48653851e28c69d0506508fb27fc5" style="stroke:#181818;stroke-width:1.0;"/><polygon fill="#181818" points="393.69,55.86,383.8517,55.4048,389.032,57.6774,386.7594,62.8577,393.69,55.86" style="stroke:#181818;stroke-width:1.0;"/></g><!--link b882f9f76709edb64e64cfbea4191dec to 7c494a3e4fabc976b0a9e2ffaa3063ae--><g id="link_b882f9f76709edb64e64cfbea4191dec_7c494a3e4fabc976b0a9e2ffaa3063ae"><path codeLine="32" d="M559.18,282.5 C572.64,313.22 587.99,348.25 594.64,363.41 " fill="none" id="b882f9f76709edb64e64cfbea4191dec-7c494a3e4fabc976b0a9e2ffaa3063ae" style="stroke:#181818;stroke-width:1.0;"/></g><!--link 7c494a3e4fabc976b0a9e2ffaa3063ae to b155c2a6d5e1ad995799e121fec7f2ef--><g id="link_7c494a3e4fabc976b0a9e2ffaa3063ae_b155c2a6d5e1ad995799e121fec7f2ef"><path codeLine="33" d="M606.46,381 C631.77,404.71 706.74,474.93 731.76,498.36 " fill="none" id="7c494a3e4fabc976b0a9e2ffaa3063ae-b155c2a6d5e1ad995799e121fec7f2ef" style="stroke:#181818;stroke-width:1.0;"/></g><!--link 28b6cd61471341661c9a3293723ca8b8 to c0094e709fbe68c3666035bc1bb1bbf6--><g id="link_28b6cd61471341661c9a3293723ca8b8_c0094e709fbe68c3666035bc1bb1bbf6"><path codeLine="34" d="M391,636.68 C391,661.83 391,705.97 391,731.1 " fill="none" id="28b6cd61471341661c9a3293723ca8b8-c0094e709fbe68c3666035bc1bb1bbf6" style="stroke:#181818;stroke-width:1.0;"/><text fill="#000000" font-family="sans-serif" font-size="13" lengthAdjust="spacing" textLength="14" x="392" y="697.4369">rw</text></g><!--link b882f9f76709edb64e64cfbea4191dec to 28b6cd61471341661c9a3293723ca8b8--><g id="link_b882f9f76709edb64e64cfbea4191dec_28b6cd61471341661c9a3293723ca8b8"><path codeLine="35" d="M514.52,282.57 C481.75,370.95 421.176,534.3343 400.156,591.0243 " fill="none" id="b882f9f76709edb64e64cfbea4191dec-to-28b6cd61471341661c9a3293723ca8b8" style="stroke:#181818;stroke-width:1.0;stroke-dasharray:7.0,7.0;"/><polygon fill="#181818" points="398.07,596.65,404.9494,589.602,399.8083,591.9619,397.4484,586.8208,398.07,596.65" style="stroke:#181818;stroke-width:1.0;"/><text fill="#000000" font-family="sans-serif" font-size="13" lengthAdjust="spacing" textLength="23" x="460" y="444.1469">use</text></g><!--link aa4221d95a0f5d6d2dda170dfab198a9 to ff02fee0f7d12d656c8629c635b1be95--><g id="link_aa4221d95a0f5d6d2dda170dfab198a9_ff02fee0f7d12d656c8629c635b1be95"><path codeLine="36" d="M558,636.68 C558,661.83 558,705.97 558,731.1 " fill="none" id="aa4221d95a0f5d6d2dda170dfab198a9-ff02fee0f7d12d656c8629c635b1be95" style="stroke:#181818;stroke-width:1.0;"/><text fill="#000000" font-family="sans-serif" font-size="13" lengthAdjust="spacing" textLength="14" x="559" y="697.4369">rw</text></g><!--link b882f9f76709edb64e64cfbea4191dec to aa4221d95a0f5d6d2dda170dfab198a9--><g id="link_b882f9f76709edb64e64cfbea4191dec_aa4221d95a0f5d6d2dda170dfab198a9"><path codeLine="37" d="M538.27,282.57 C543.5,370.95 553.155,533.9705 556.515,590.6605 " fill="none" id="b882f9f76709edb64e64cfbea4191dec-to-aa4221d95a0f5d6d2dda170dfab198a9" style="stroke:#181818;stroke-width:1.0;stroke-dasharray:7.0,7.0;"/><polygon fill="#181818" points="556.87,596.65,560.3305,587.4291,556.5742,591.6588,552.3445,587.9024,556.87,596.65" style="stroke:#181818;stroke-width:1.0;"/><text fill="#000000" font-family="sans-serif" font-size="13" lengthAdjust="spacing" textLength="23" x="549" y="444.1469">use</text></g><!--reverse link dd94b72ff4f26c4f320c68bb03cd4c39 to 2b9afb89a6acc1575b159bfca38d10ad--><g id="link_dd94b72ff4f26c4f320c68bb03cd4c39_2b9afb89a6acc1575b159bfca38d10ad"><path codeLine="38" d="M514.0546,43.4134 C557.8546,49.9334 609.96,65.46 641,106.59 C656.685,127.37 658.8675,156.46 657.04,180.6462 " fill="none" id="dd94b72ff4f26c4f320c68bb03cd4c39-backto-2b9afb89a6acc1575b159bfca38d10ad" style="stroke:#181818;stroke-width:1.0;"/><polygon fill="#181818" points="508.12,42.53,516.433,47.8115,513.0655,43.2662,517.6109,39.8987,508.12,42.53" style="stroke:#181818;stroke-width:1.0;"/></g><!--SRC=[bPJFZjCm4CRlUOee9wZKrd_7djMg9nw0Et0OZ-qgq2QbpL8GujtnfbswYrOoABd4yeo_x-TlGhlTUDxtt_jXsmnZJ6stM9newXUBZyFz_P2cytZyijbqBPtQ6D44ft8sMG6Rh9LWy248pT6mnck3z-DfsXxJQQv9dem7gxsLINa6ZC8AiCBde5ncs_viMXxtXt58mzGIUiMeWqqf4KBsGNg9IXX55113-w6vo5l6i5WqJR-dRRfhhojDENIYutJNqkvCFqvDywafdtqcdjfk_OsEwrqVreUhlg-xTQI9PfaXQPUC20Ay1aNHAXJWlB74nNCKpQ-hkNUVQTYESuqAI3bu921cQPqDqcB8JDf7AIY-j1QyLncp0oSmnG0cWU4S4Xc9CYQ-MQF3uMzlPUarSs_UjfqNGino71iqf9F951WT146OocKHQG6QqdCKus5QFpPUbvPJpnSxFW17aCP9RII0P2IjK3kbcNpmhzRlK-ml18cCKZAY9P5jXAXY9Eb4B6eaUi92yDRWiBsHLzhQeha49CV2q6RDJbWiSGaOrNFPg-ToMGWqgS0i3C6p1W2XRM0PGdaplAYxoSnPg9oIo2vA5S42Ur38K4fbI6XdfbAvbIYF_0EtNArbHH1jaXGHhKDCKicSs6MLSbCBKBkCowhNzgxjZkUkgOx1QXLNgqqrjO_z7awfQwfJk7nORkhpNStmeybg3ciRBgXgm6jndRlKGl84l6hi2hnww1FmsZJCwcfP_5zrrKEVr5N_NFyKXzy0]--></g></svg>