<svg xmlns="http://www.w3.org/2000/svg" xmlns:xlink="http://www.w3.org/1999/xlink" contentStyleType="text/css" height="722px" preserveAspectRatio="none" style="width:1171px;height:722px;background:#FFFFFF;" version="1.1" viewBox="0 0 1171 722" width="1171px" zoomAndPan="magnify"><defs/><g><!--cluster 5f25b949cdda916410e41f1a2fb370f7--><g id="cluster_5f25b949cdda916410e41f1a2fb370f7"><path d="M8.5,6 L42.5,6 A3.75,3.75 0 0 1 45,8.5 L52,28.2969 L1161.5,28.2969 A2.5,2.5 0 0 1 1164,30.7969 L1164,712.95 A2.5,2.5 0 0 1 1161.5,715.45 L8.5,715.45 A2.5,2.5 0 0 1 6,712.95 L6,8.5 A2.5,2.5 0 0 1 8.5,6 " fill="none" style="stroke:#000000;stroke-width:1.5;"/><line style="stroke:#000000;stroke-width:1.5;" x1="6" x2="52" y1="28.2969" y2="28.2969"/><text fill="#000000" font-family="sans-serif" font-size="14" font-weight="bold" lengthAdjust="spacing" textLength="33" x="10" y="20.9951">sati/</text></g><!--cluster 1ad617cea6b6c25e92bcdf4797cbd163--><g id="cluster_1ad617cea6b6c25e92bcdf4797cbd163"><path d="M32.5,144.89 L81.5,144.89 A3.75,3.75 0 0 1 84,147.39 L91,167.1869 L494.5,167.1869 A2.5,2.5 0 0 1 497,169.6869 L497,688.95 A2.5,2.5 0 0 1 494.5,691.45 L32.5,691.45 A2.5,2.5 0 0 1 30,688.95 L30,147.39 A2.5,2.5 0 0 1 32.5,144.89 " fill="none" style="stroke:#000000;stroke-width:1.5;"/><line style="stroke:#000000;stroke-width:1.5;" x1="30" x2="91" y1="167.1869" y2="167.1869"/><text fill="#000000" font-family="sans-serif" font-size="14" font-weight="bold" lengthAdjust="spacing" textLength="48" x="34" y="159.8851">items/</text></g><!--cluster 4060fb44a295bfd5ce8565c130ea8426--><g id="cluster_4060fb44a295bfd5ce8565c130ea8426"><path d="M675.5,283.78 L726.5,283.78 A3.75,3.75 0 0 1 729,286.28 L736,306.0769 L1137.5,306.0769 A2.5,2.5 0 0 1 1140,308.5769 L1140,688.95 A2.5,2.5 0 0 1 1137.5,691.45 L675.5,691.45 A2.5,2.5 0 0 1 673,688.95 L673,286.28 A2.5,2.5 0 0 1 675.5,283.78 " fill="none" style="stroke:#000000;stroke-width:1.5;"/><line style="stroke:#000000;stroke-width:1.5;" x1="673" x2="736" y1="306.0769" y2="306.0769"/><text fill="#000000" font-family="sans-serif" font-size="14" font-weight="bold" lengthAdjust="spacing" textLength="50" x="677" y="298.7751">users/</text></g><!--entity 20dd35bf71f1cb69276027276ba9ff66--><g id="elem_20dd35bf71f1cb69276027276ba9ff66"><rect fill="#F1F1F1" height="78.8906" rx="2.5" ry="2.5" style="stroke:#181818;stroke-width:0.5;" width="132" x="168" y="41"/><rect fill="#F1F1F1" height="10" style="stroke:#181818;stroke-width:0.5;" width="15" x="280" y="46"/><rect fill="#F1F1F1" height="2" style="stroke:#181818;stroke-width:0.5;" width="4" x="278" y="48"/><rect fill="#F1F1F1" height="2" style="stroke:#181818;stroke-width:0.5;" width="4" x="278" y="52"/><text fill="#000000" font-family="sans-serif" font-size="14" font-weight="bold" lengthAdjust="spacing" textLength="92" x="183" y="73.9951">middleware</text><text fill="#000000" font-family="sans-serif" font-size="14" lengthAdjust="spacing" textLength="4" x="183" y="90.292">&#160;</text><text fill="#000000" font-family="sans-serif" font-size="14" lengthAdjust="spacing" textLength="4" x="183" y="106.5889">&#160;</text></g><!--entity 99036aa5e12d4a32b58ff6e3ffb95d93--><g id="elem_99036aa5e12d4a32b58ff6e3ffb95d93"><rect fill="#F1F1F1" height="78.8906" rx="2.5" ry="2.5" style="stroke:#181818;stroke-width:0.5;" width="70" x="408" y="41"/><rect fill="#F1F1F1" height="10" style="stroke:#181818;stroke-width:0.5;" width="15" x="458" y="46"/><rect fill="#F1F1F1" height="2" style="stroke:#181818;stroke-width:0.5;" width="4" x="456" y="48"/><rect fill="#F1F1F1" height="2" style="stroke:#181818;stroke-width:0.5;" width="4" x="456" y="52"/><text fill="#000000" font-family="sans-serif" font-size="14" font-weight="bold" lengthAdjust="spacing" textLength="30" x="423" y="73.9951">urls</text><text fill="#000000" font-family="sans-serif" font-size="14" lengthAdjust="spacing" textLength="4" x="423" y="90.292">&#160;</text><text fill="#000000" font-family="sans-serif" font-size="14" lengthAdjust="spacing" textLength="4" x="423" y="106.5889">&#160;</text></g><!--entity 4915e7d014513c6890cf6f1060d723a5--><g id="elem_4915e7d014513c6890cf6f1060d723a5"><rect fill="#F1F1F1" height="78.8906" rx="2.5" ry="2.5" style="stroke:#181818;stroke-width:0.5;" width="156" x="752" y="41"/><rect fill="#F1F1F1" height="10" style="stroke:#181818;stroke-width:0.5;" width="15" x="888" y="46"/><rect fill="#F1F1F1" height="2" style="stroke:#181818;stroke-width:0.5;" width="4" x="886" y="48"/><rect fill="#F1F1F1" height="2" style="stroke:#181818;stroke-width:0.5;" width="4" x="886" y="52"/><text fill="#000000" font-family="sans-serif" font-size="14" font-weight="bold" lengthAdjust="spacing" textLength="116" x="767" y="73.9951">baton_settings</text><text fill="#000000" font-family="sans-serif" font-size="14" lengthAdjust="spacing" textLength="4" x="767" y="90.292">&#160;</text><text fill="#000000" font-family="sans-serif" font-size="14" lengthAdjust="spacing" textLength="4" x="767" y="106.5889">&#160;</text></g><!--entity 15d64d0dd9716e9067466a9677f876a7--><g id="elem_15d64d0dd9716e9067466a9677f876a7"><rect fill="#F1F1F1" height="78.8906" rx="2.5" ry="2.5" style="stroke:#181818;stroke-width:0.5;" width="103" x="513.5" y="318.78"/><rect fill="#F1F1F1" height="10" style="stroke:#181818;stroke-width:0.5;" width="15" x="596.5" y="323.78"/><rect fill="#F1F1F1" height="2" style="stroke:#181818;stroke-width:0.5;" width="4" x="594.5" y="325.78"/><rect fill="#F1F1F1" height="2" style="stroke:#181818;stroke-width:0.5;" width="4" x="594.5" y="329.78"/><text fill="#000000" font-family="sans-serif" font-size="14" font-weight="bold" lengthAdjust="spacing" textLength="63" x="528.5" y="351.7751">widgets</text><text fill="#000000" font-family="sans-serif" font-size="14" lengthAdjust="spacing" textLength="4" x="528.5" y="368.072">&#160;</text><text fill="#000000" font-family="sans-serif" font-size="14" lengthAdjust="spacing" textLength="4" x="528.5" y="384.3689">&#160;</text></g><!--entity 434641ed7691e476523eb270b7ab37a5--><g id="elem_434641ed7691e476523eb270b7ab37a5"><rect fill="#F1F1F1" height="78.8906" rx="2.5" ry="2.5" style="stroke:#181818;stroke-width:0.5;" width="83" x="368.5" y="457.67"/><rect fill="#F1F1F1" height="10" style="stroke:#181818;stroke-width:0.5;" width="15" x="431.5" y="462.67"/><rect fill="#F1F1F1" height="2" style="stroke:#181818;stroke-width:0.5;" width="4" x="429.5" y="464.67"/><rect fill="#F1F1F1" height="2" style="stroke:#181818;stroke-width:0.5;" width="4" x="429.5" y="468.67"/><text fill="#000000" font-family="sans-serif" font-size="14" font-weight="bold" lengthAdjust="spacing" textLength="43" x="383.5" y="490.6651">fields</text><text fill="#000000" font-family="sans-serif" font-size="14" lengthAdjust="spacing" textLength="4" x="383.5" y="506.962">&#160;</text><text fill="#000000" font-family="sans-serif" font-size="14" lengthAdjust="spacing" textLength="4" x="383.5" y="523.2589">&#160;</text></g><!--entity 4ffdc57309572db7382375d1b8da1e4f--><g id="elem_4ffdc57309572db7382375d1b8da1e4f"><rect fill="#F1F1F1" height="78.8906" rx="2.5" ry="2.5" style="stroke:#181818;stroke-width:0.5;" width="103" x="358.5" y="596.56"/><rect fill="#F1F1F1" height="10" style="stroke:#181818;stroke-width:0.5;" width="15" x="441.5" y="601.56"/><rect fill="#F1F1F1" height="2" style="stroke:#181818;stroke-width:0.5;" width="4" x="439.5" y="603.56"/><rect fill="#F1F1F1" height="2" style="stroke:#181818;stroke-width:0.5;" width="4" x="439.5" y="607.56"/><text fill="#000000" font-family="sans-serif" font-size="14" font-weight="bold" lengthAdjust="spacing" textLength="63" x="373.5" y="629.5551">widgets</text><text fill="#000000" font-family="sans-serif" font-size="14" lengthAdjust="spacing" textLength="4" x="373.5" y="645.852">&#160;</text><text fill="#000000" font-family="sans-serif" font-size="14" lengthAdjust="spacing" textLength="4" x="373.5" y="662.1489">&#160;</text></g><!--entity 7bd41d4891d3c444a26d0a0882093b6a--><g id="elem_7bd41d4891d3c444a26d0a0882093b6a"><rect fill="#F1F1F1" height="78.8906" rx="2.5" ry="2.5" style="stroke:#181818;stroke-width:0.5;" width="86" x="46" y="179.89"/><rect fill="#F1F1F1" height="10" style="stroke:#181818;stroke-width:0.5;" width="15" x="112" y="184.89"/><rect fill="#F1F1F1" height="2" style="stroke:#181818;stroke-width:0.5;" width="4" x="110" y="186.89"/><rect fill="#F1F1F1" height="2" style="stroke:#181818;stroke-width:0.5;" width="4" x="110" y="190.89"/><text fill="#000000" font-family="sans-serif" font-size="14" font-weight="bold" lengthAdjust="spacing" textLength="46" x="61" y="212.8851">views</text><text fill="#000000" font-family="sans-serif" font-size="14" lengthAdjust="spacing" textLength="4" x="61" y="229.182">&#160;</text><text fill="#000000" font-family="sans-serif" font-size="14" lengthAdjust="spacing" textLength="4" x="61" y="245.4789">&#160;</text></g><!--entity bf7681448200d20928ce9a4a7248ea06--><g id="elem_bf7681448200d20928ce9a4a7248ea06"><rect fill="#F1F1F1" height="78.8906" rx="2.5" ry="2.5" style="stroke:#181818;stroke-width:0.5;" width="80" x="167" y="179.89"/><rect fill="#F1F1F1" height="10" style="stroke:#181818;stroke-width:0.5;" width="15" x="227" y="184.89"/><rect fill="#F1F1F1" height="2" style="stroke:#181818;stroke-width:0.5;" width="4" x="225" y="186.89"/><rect fill="#F1F1F1" height="2" style="stroke:#181818;stroke-width:0.5;" width="4" x="225" y="190.89"/><text fill="#000000" font-family="sans-serif" font-size="14" font-weight="bold" lengthAdjust="spacing" textLength="40" x="182" y="212.8851">tests</text><text fill="#000000" font-family="sans-serif" font-size="14" lengthAdjust="spacing" textLength="4" x="182" y="229.182">&#160;</text><text fill="#000000" font-family="sans-serif" font-size="14" lengthAdjust="spacing" textLength="4" x="182" y="245.4789">&#160;</text></g><!--entity 209fbb150331e5e1ffded7caa9d70f71--><g id="elem_209fbb150331e5e1ffded7caa9d70f71"><rect fill="#F1F1F1" height="78.8906" rx="2.5" ry="2.5" style="stroke:#181818;stroke-width:0.5;" width="78" x="282" y="179.89"/><rect fill="#F1F1F1" height="10" style="stroke:#181818;stroke-width:0.5;" width="15" x="340" y="184.89"/><rect fill="#F1F1F1" height="2" style="stroke:#181818;stroke-width:0.5;" width="4" x="338" y="186.89"/><rect fill="#F1F1F1" height="2" style="stroke:#181818;stroke-width:0.5;" width="4" x="338" y="190.89"/><text fill="#000000" font-family="sans-serif" font-size="14" font-weight="bold" lengthAdjust="spacing" textLength="38" x="297" y="212.8851">apps</text><text fill="#000000" font-family="sans-serif" font-size="14" lengthAdjust="spacing" textLength="4" x="297" y="229.182">&#160;</text><text fill="#000000" font-family="sans-serif" font-size="14" lengthAdjust="spacing" textLength="4" x="297" y="245.4789">&#160;</text></g><!--entity 25af3f06f0fc5267b6300686dbd3271a--><g id="elem_25af3f06f0fc5267b6300686dbd3271a"><rect fill="#F1F1F1" height="78.8906" rx="2.5" ry="2.5" style="stroke:#181818;stroke-width:0.5;" width="97" x="324.5" y="318.78"/><rect fill="#F1F1F1" height="10" style="stroke:#181818;stroke-width:0.5;" width="15" x="401.5" y="323.78"/><rect fill="#F1F1F1" height="2" style="stroke:#181818;stroke-width:0.5;" width="4" x="399.5" y="325.78"/><rect fill="#F1F1F1" height="2" style="stroke:#181818;stroke-width:0.5;" width="4" x="399.5" y="329.78"/><text fill="#000000" font-family="sans-serif" font-size="14" font-weight="bold" lengthAdjust="spacing" textLength="57" x="339.5" y="351.7751">models</text><text fill="#000000" font-family="sans-serif" font-size="14" lengthAdjust="spacing" textLength="4" x="339.5" y="368.072">&#160;</text><text fill="#000000" font-family="sans-serif" font-size="14" lengthAdjust="spacing" textLength="4" x="339.5" y="384.3689">&#160;</text></g><!--entity 144576994add3efe5f9d6c1bfaff5312--><g id="elem_144576994add3efe5f9d6c1bfaff5312"><rect fill="#F1F1F1" height="78.8906" rx="2.5" ry="2.5" style="stroke:#181818;stroke-width:0.5;" width="87" x="394.5" y="179.89"/><rect fill="#F1F1F1" height="10" style="stroke:#181818;stroke-width:0.5;" width="15" x="461.5" y="184.89"/><rect fill="#F1F1F1" height="2" style="stroke:#181818;stroke-width:0.5;" width="4" x="459.5" y="186.89"/><rect fill="#F1F1F1" height="2" style="stroke:#181818;stroke-width:0.5;" width="4" x="459.5" y="190.89"/><text fill="#000000" font-family="sans-serif" font-size="14" font-weight="bold" lengthAdjust="spacing" textLength="47" x="409.5" y="212.8851">admin</text><text fill="#000000" font-family="sans-serif" font-size="14" lengthAdjust="spacing" textLength="4" x="409.5" y="229.182">&#160;</text><text fill="#000000" font-family="sans-serif" font-size="14" lengthAdjust="spacing" textLength="4" x="409.5" y="245.4789">&#160;</text></g><!--entity 058046d512d02e5a20ea82f171d95457--><g id="elem_058046d512d02e5a20ea82f171d95457"><rect fill="#F1F1F1" height="78.8906" rx="2.5" ry="2.5" style="stroke:#181818;stroke-width:0.5;" width="118" x="689" y="596.56"/><rect fill="#F1F1F1" height="10" style="stroke:#181818;stroke-width:0.5;" width="15" x="787" y="601.56"/><rect fill="#F1F1F1" height="2" style="stroke:#181818;stroke-width:0.5;" width="4" x="785" y="603.56"/><rect fill="#F1F1F1" height="2" style="stroke:#181818;stroke-width:0.5;" width="4" x="785" y="607.56"/><text fill="#000000" font-family="sans-serif" font-size="14" font-weight="bold" lengthAdjust="spacing" textLength="78" x="704" y="629.5551">managers</text><text fill="#000000" font-family="sans-serif" font-size="14" lengthAdjust="spacing" textLength="4" x="704" y="645.852">&#160;</text><text fill="#000000" font-family="sans-serif" font-size="14" lengthAdjust="spacing" textLength="4" x="704" y="662.1489">&#160;</text></g><!--entity 0ab3666710a8cd63db1a9476481de910--><g id="elem_0ab3666710a8cd63db1a9476481de910"><rect fill="#F1F1F1" height="78.8906" rx="2.5" ry="2.5" style="stroke:#181818;stroke-width:0.5;" width="86" x="689" y="318.78"/><rect fill="#F1F1F1" height="10" style="stroke:#181818;stroke-width:0.5;" width="15" x="755" y="323.78"/><rect fill="#F1F1F1" height="2" style="stroke:#181818;stroke-width:0.5;" width="4" x="753" y="325.78"/><rect fill="#F1F1F1" height="2" style="stroke:#181818;stroke-width:0.5;" width="4" x="753" y="329.78"/><text fill="#000000" font-family="sans-serif" font-size="14" font-weight="bold" lengthAdjust="spacing" textLength="46" x="704" y="351.7751">views</text><text fill="#000000" font-family="sans-serif" font-size="14" lengthAdjust="spacing" textLength="4" x="704" y="368.072">&#160;</text><text fill="#000000" font-family="sans-serif" font-size="14" lengthAdjust="spacing" textLength="4" x="704" y="384.3689">&#160;</text></g><!--entity a232180f36330ca519e56ddb383a04a2--><g id="elem_a232180f36330ca519e56ddb383a04a2"><rect fill="#F1F1F1" height="78.8906" rx="2.5" ry="2.5" style="stroke:#181818;stroke-width:0.5;" width="80" x="810" y="318.78"/><rect fill="#F1F1F1" height="10" style="stroke:#181818;stroke-width:0.5;" width="15" x="870" y="323.78"/><rect fill="#F1F1F1" height="2" style="stroke:#181818;stroke-width:0.5;" width="4" x="868" y="325.78"/><rect fill="#F1F1F1" height="2" style="stroke:#181818;stroke-width:0.5;" width="4" x="868" y="329.78"/><text fill="#000000" font-family="sans-serif" font-size="14" font-weight="bold" lengthAdjust="spacing" textLength="40" x="825" y="351.7751">tests</text><text fill="#000000" font-family="sans-serif" font-size="14" lengthAdjust="spacing" textLength="4" x="825" y="368.072">&#160;</text><text fill="#000000" font-family="sans-serif" font-size="14" lengthAdjust="spacing" textLength="4" x="825" y="384.3689">&#160;</text></g><!--entity 216b8069422ba3b3a40d987a37661c20--><g id="elem_216b8069422ba3b3a40d987a37661c20"><rect fill="#F1F1F1" height="78.8906" rx="2.5" ry="2.5" style="stroke:#181818;stroke-width:0.5;" width="78" x="925" y="318.78"/><rect fill="#F1F1F1" height="10" style="stroke:#181818;stroke-width:0.5;" width="15" x="983" y="323.78"/><rect fill="#F1F1F1" height="2" style="stroke:#181818;stroke-width:0.5;" width="4" x="981" y="325.78"/><rect fill="#F1F1F1" height="2" style="stroke:#181818;stroke-width:0.5;" width="4" x="981" y="329.78"/><text fill="#000000" font-family="sans-serif" font-size="14" font-weight="bold" lengthAdjust="spacing" textLength="38" x="940" y="351.7751">apps</text><text fill="#000000" font-family="sans-serif" font-size="14" lengthAdjust="spacing" textLength="4" x="940" y="368.072">&#160;</text><text fill="#000000" font-family="sans-serif" font-size="14" lengthAdjust="spacing" textLength="4" x="940" y="384.3689">&#160;</text></g><!--entity 9c2d1ce1373fe56fd797de53efae53cc--><g id="elem_9c2d1ce1373fe56fd797de53efae53cc"><rect fill="#F1F1F1" height="78.8906" rx="2.5" ry="2.5" style="stroke:#181818;stroke-width:0.5;" width="97" x="693.5" y="457.67"/><rect fill="#F1F1F1" height="10" style="stroke:#181818;stroke-width:0.5;" width="15" x="770.5" y="462.67"/><rect fill="#F1F1F1" height="2" style="stroke:#181818;stroke-width:0.5;" width="4" x="768.5" y="464.67"/><rect fill="#F1F1F1" height="2" style="stroke:#181818;stroke-width:0.5;" width="4" x="768.5" y="468.67"/><text fill="#000000" font-family="sans-serif" font-size="14" font-weight="bold" lengthAdjust="spacing" textLength="57" x="708.5" y="490.6651">models</text><text fill="#000000" font-family="sans-serif" font-size="14" lengthAdjust="spacing" textLength="4" x="708.5" y="506.962">&#160;</text><text fill="#000000" font-family="sans-serif" font-size="14" lengthAdjust="spacing" textLength="4" x="708.5" y="523.2589">&#160;</text></g><!--entity 3b102c99390c0f472525241d553b0aa3--><g id="elem_3b102c99390c0f472525241d553b0aa3"><rect fill="#F1F1F1" height="78.8906" rx="2.5" ry="2.5" style="stroke:#181818;stroke-width:0.5;" width="87" x="1037.5" y="318.78"/><rect fill="#F1F1F1" height="10" style="stroke:#181818;stroke-width:0.5;" width="15" x="1104.5" y="323.78"/><rect fill="#F1F1F1" height="2" style="stroke:#181818;stroke-width:0.5;" width="4" x="1102.5" y="325.78"/><rect fill="#F1F1F1" height="2" style="stroke:#181818;stroke-width:0.5;" width="4" x="1102.5" y="329.78"/><text fill="#000000" font-family="sans-serif" font-size="14" font-weight="bold" lengthAdjust="spacing" textLength="47" x="1052.5" y="351.7751">admin</text><text fill="#000000" font-family="sans-serif" font-size="14" lengthAdjust="spacing" textLength="4" x="1052.5" y="368.072">&#160;</text><text fill="#000000" font-family="sans-serif" font-size="14" lengthAdjust="spacing" textLength="4" x="1052.5" y="384.3689">&#160;</text></g><!--link 99036aa5e12d4a32b58ff6e3ffb95d93 to 7bd41d4891d3c444a26d0a0882093b6a--><g id="link_99036aa5e12d4a32b58ff6e3ffb95d93_7bd41d4891d3c444a26d0a0882093b6a"><path codeLine="93" d="M407.63,94.26 C382.63,102.81 348.16,113.61 317,119.89 C280.43,127.25 182.47,118.52 150,136.89 C132.62,146.71 121.9167,158.6652 111.7867,174.6152 " fill="none" id="99036aa5e12d4a32b58ff6e3ffb95d93-to-7bd41d4891d3c444a26d0a0882093b6a" style="stroke:#181818;stroke-width:1.0;"/><polygon fill="#181818" points="108.57,179.68,116.7717,174.2272,111.2506,175.4593,110.0185,169.9382,108.57,179.68" style="stroke:#181818;stroke-width:1.0;"/></g><!--link 99036aa5e12d4a32b58ff6e3ffb95d93 to 0ab3666710a8cd63db1a9476481de910--><g id="link_99036aa5e12d4a32b58ff6e3ffb95d93_0ab3666710a8cd63db1a9476481de910"><path codeLine="94" d="M478.45,110.36 C522.89,147.16 600.67,213.47 662,275.78 C675.21,289.2 685.0139,300.1301 696.7439,313.9901 " fill="none" id="99036aa5e12d4a32b58ff6e3ffb95d93-to-0ab3666710a8cd63db1a9476481de910" style="stroke:#181818;stroke-width:1.0;"/><polygon fill="#181818" points="700.62,318.57,697.8591,309.116,697.3899,314.7534,691.7526,314.2842,700.62,318.57" style="stroke:#181818;stroke-width:1.0;"/></g><!--link 434641ed7691e476523eb270b7ab37a5 to 4ffdc57309572db7382375d1b8da1e4f--><g id="link_434641ed7691e476523eb270b7ab37a5_4ffdc57309572db7382375d1b8da1e4f"><path codeLine="95" d="M410,536.98 C410,555.63 410,571.91 410,590.52 " fill="none" id="434641ed7691e476523eb270b7ab37a5-to-4ffdc57309572db7382375d1b8da1e4f" style="stroke:#181818;stroke-width:1.0;"/><polygon fill="#181818" points="410,596.52,414,587.52,410,591.52,406,587.52,410,596.52" style="stroke:#181818;stroke-width:1.0;"/></g><!--link 7bd41d4891d3c444a26d0a0882093b6a to 25af3f06f0fc5267b6300686dbd3271a--><g id="link_7bd41d4891d3c444a26d0a0882093b6a_25af3f06f0fc5267b6300686dbd3271a"><path codeLine="96" d="M132.19,248.64 C138.1,252.19 144.14,255.66 150,258.78 C208.28,289.79 272.7773,317.3114 318.6173,335.8414 " fill="none" id="7bd41d4891d3c444a26d0a0882093b6a-to-25af3f06f0fc5267b6300686dbd3271a" style="stroke:#181818;stroke-width:1.0;"/><polygon fill="#181818" points="324.18,338.09,317.335,331.0086,319.5444,336.2161,314.3369,338.4255,324.18,338.09" style="stroke:#181818;stroke-width:1.0;"/></g><!--link 25af3f06f0fc5267b6300686dbd3271a to 9c2d1ce1373fe56fd797de53efae53cc--><g id="link_25af3f06f0fc5267b6300686dbd3271a_9c2d1ce1373fe56fd797de53efae53cc"><path codeLine="97" d="M421.99,396.09 C423,396.64 424,397.16 425,397.67 C514.58,443.04 623.2192,470.975 687.2092,485.005 " fill="none" id="25af3f06f0fc5267b6300686dbd3271a-to-9c2d1ce1373fe56fd797de53efae53cc" style="stroke:#181818;stroke-width:1.0;"/><polygon fill="#181818" points="693.07,486.29,685.1355,480.4553,688.186,485.2192,683.4222,488.2697,693.07,486.29" style="stroke:#181818;stroke-width:1.0;"/></g><!--link 25af3f06f0fc5267b6300686dbd3271a to 434641ed7691e476523eb270b7ab37a5--><g id="link_25af3f06f0fc5267b6300686dbd3271a_434641ed7691e476523eb270b7ab37a5"><path codeLine="98" d="M383.5,398.08 C388.55,416.74 393.0045,433.2278 398.0345,451.8378 " fill="none" id="25af3f06f0fc5267b6300686dbd3271a-to-434641ed7691e476523eb270b7ab37a5" style="stroke:#181818;stroke-width:1.0;"/><polygon fill="#181818" points="399.6,457.63,401.1131,447.8981,398.2954,452.8032,393.3903,449.9854,399.6,457.63" style="stroke:#181818;stroke-width:1.0;"/></g><!--link 144576994add3efe5f9d6c1bfaff5312 to 25af3f06f0fc5267b6300686dbd3271a--><g id="link_144576994add3efe5f9d6c1bfaff5312_25af3f06f0fc5267b6300686dbd3271a"><path codeLine="99" d="M419.55,259.19 C410.69,277.85 402.6844,294.7104 393.8444,313.3204 " fill="none" id="144576994add3efe5f9d6c1bfaff5312-to-25af3f06f0fc5267b6300686dbd3271a" style="stroke:#181818;stroke-width:1.0;"/><polygon fill="#181818" points="391.27,318.74,398.7447,312.3268,393.4153,314.2236,391.5185,308.8943,391.27,318.74" style="stroke:#181818;stroke-width:1.0;"/></g><!--link 144576994add3efe5f9d6c1bfaff5312 to 434641ed7691e476523eb270b7ab37a5--><g id="link_144576994add3efe5f9d6c1bfaff5312_434641ed7691e476523eb270b7ab37a5"><path codeLine="100" d="M438.79,259.11 C438.88,264.7 438.95,270.39 439,275.78 C439.49,329.95 446.73,344.05 439,397.67 C436.1,417.77 431.8901,433.7856 426.0501,451.6956 " fill="none" id="144576994add3efe5f9d6c1bfaff5312-to-434641ed7691e476523eb270b7ab37a5" style="stroke:#181818;stroke-width:1.0;"/><polygon fill="#181818" points="424.19,457.4,430.783,450.0834,425.7401,452.6463,423.1772,447.6034,424.19,457.4" style="stroke:#181818;stroke-width:1.0;"/></g><!--link 144576994add3efe5f9d6c1bfaff5312 to 9c2d1ce1373fe56fd797de53efae53cc--><g id="link_144576994add3efe5f9d6c1bfaff5312_9c2d1ce1373fe56fd797de53efae53cc"><path codeLine="101" d="M481.81,257.35 C482.86,257.85 483.93,258.33 485,258.78 C518.62,272.78 621.11,251.22 648,275.78 C688.77,313.01 650.18,346.95 672,397.67 C681.12,418.86 691.6641,435.2624 704.9041,452.4924 " fill="none" id="144576994add3efe5f9d6c1bfaff5312-to-9c2d1ce1373fe56fd797de53efae53cc" style="stroke:#181818;stroke-width:1.0;"/><polygon fill="#181818" points="708.56,457.25,706.2479,447.6764,705.5134,453.2853,699.9045,452.5509,708.56,457.25" style="stroke:#181818;stroke-width:1.0;"/></g><!--link 144576994add3efe5f9d6c1bfaff5312 to 15d64d0dd9716e9067466a9677f876a7--><g id="link_144576994add3efe5f9d6c1bfaff5312_15d64d0dd9716e9067466a9677f876a7"><path codeLine="102" d="M480.51,259.1 C486.16,264.6 491.79,270.26 497,275.78 C509.64,289.18 518.9648,299.9092 530.2848,313.6492 " fill="none" id="144576994add3efe5f9d6c1bfaff5312-to-15d64d0dd9716e9067466a9677f876a7" style="stroke:#181818;stroke-width:1.0;"/><polygon fill="#181818" points="534.1,318.28,531.4644,308.7903,530.9207,314.421,525.29,313.8773,534.1,318.28" style="stroke:#181818;stroke-width:1.0;"/></g><!--link 9c2d1ce1373fe56fd797de53efae53cc to 058046d512d02e5a20ea82f171d95457--><g id="link_9c2d1ce1373fe56fd797de53efae53cc_058046d512d02e5a20ea82f171d95457"><path codeLine="103" d="M743.7,536.98 C744.52,555.63 745.2391,571.9157 746.0491,590.5257 " fill="none" id="9c2d1ce1373fe56fd797de53efae53cc-to-058046d512d02e5a20ea82f171d95457" style="stroke:#181818;stroke-width:1.0;"/><polygon fill="#181818" points="746.31,596.52,749.9149,587.3546,746.0926,591.5247,741.9224,587.7024,746.31,596.52" style="stroke:#181818;stroke-width:1.0;"/></g><!--link 3b102c99390c0f472525241d553b0aa3 to 9c2d1ce1373fe56fd797de53efae53cc--><g id="link_3b102c99390c0f472525241d553b0aa3_9c2d1ce1373fe56fd797de53efae53cc"><path codeLine="104" d="M1037.01,388.54 C1031.39,391.81 1025.63,394.94 1020,397.67 C942.71,435.13 853.0952,464.0738 796.5352,480.7438 " fill="none" id="3b102c99390c0f472525241d553b0aa3-to-9c2d1ce1373fe56fd797de53efae53cc" style="stroke:#181818;stroke-width:1.0;"/><polygon fill="#181818" points="790.78,482.44,800.5437,483.7325,795.576,481.0265,798.282,476.0588,790.78,482.44" style="stroke:#181818;stroke-width:1.0;"/></g><!--SRC=[hLNRRYCt37sVhp3sCS2Yf2XHuil-I54Kb4W5Hdq9OczJeDX_BsEdtIxYPlnG331FEaVakSpeRdTysM__s1uUboSTl-cZRpwTzBpzwTD6JvioK-cIPPYf86S4ppXHq-nKOTRDdyiuxf-E1p-SDmdCgFHPuyJeBAaof1hlhZ8dy-RdvU5XlpNR-Oi- -yF3iYo__0il0iIgnJ5PLagzj80vpTcbcD05__LvTtg7p8B5gm7cWZIu2Op94u71QY8j5sJNy_7mwydFvrZsFGSMusonWbHa5-2QcLMurjagQxrml6pjqSz_W_yHR7ls_Ucg6Aenrk7AdKSgBgaFcxbA7TsGwGV5CkNGrAsoeEVA9P7tLA5N3NtVvfvRtzcDdUUqKIg1b9giLsg9QZ7ipJJ8vervluDhjuoMcw3Ho3bhOWE5rX88TTOB-FUjlxo7Xh_SCESu2XR7KnikchMct5pXwlBPJpTkZTEpTon0X1usnmQn-r0LUmqJNg3wz7G3MNJI19umHqbSEnC0DxPkb2fUvzqVpM-48sOj8R1aZNZwz3B5U62VEcSXJDTRRRyzl46_VJVswycVtupDaQRPNwMIoBYLuQrm6KZWsdBY7uo5qY2pbKWo92-QNW-bYHLDIenpdLSFSSdp-uaXt6VcYg1j69DrL8buv8RcWl21EveeOOD9J0H32ueNDklKI25c_yWTvDw09QVKbJff1fDMbIepZWJ_xOwCP3WSgLB8ozCYxUObnDPuZ_6HEzGHqX2Xw2n4JrA99x9P2dLGfHlkV5jMlnIVxVENrP3VIRFcnhBQuWlDMb-NrKvUQDQQiAnMvKApPjcTD6khBwlbks-f-sZ-fsbMjRcFPks7igpMvXg_bK_9ijgWkvRw2m00]--></g></svg>